<svg xmlns="http://www.w3.org/2000/svg" viewBox="0 0 105.833 39.688" height="150" width="400"><defs><filter id="a" x="-.105" width="1.209" y="-.115" height="1.231" color-interpolation-filters="sRGB"><feGaussianBlur stdDeviation=".798"/></filter><filter id="b" x="-.106" width="1.213" y="-.191" height="1.383" color-interpolation-filters="sRGB"><feGaussianBlur stdDeviation=".798"/></filter><filter id="c" x="-.243" width="1.486" y="-.137" height="1.273" color-interpolation-filters="sRGB"><feGaussianBlur stdDeviation=".798"/></filter><filter id="d" x="-.128" width="1.255" y="-.172" height="1.343" color-interpolation-filters="sRGB"><feGaussianBlur stdDeviation=".798"/></filter><filter id="e" x="-.101" width="1.201" y="-.101" height="1.201" color-interpolation-filters="sRGB"><feGaussianBlur stdDeviation=".211"/></filter><filter id="f" x="-.16" width="1.319" y="-.132" height="1.264" color-interpolation-filters="sRGB"><feGaussianBlur stdDeviation=".798"/></filter><filter id="g" x="-.16" width="1.319" y="-.147" height="1.294" color-interpolation-filters="sRGB"><feGaussianBlur stdDeviation=".798"/></filter></defs><path style="marker:none" fill="#7239b3" stroke-width=".265" stroke-linecap="round" stroke-linejoin="round" d="M0 0h105.833v39.688H0z"/><g transform="matrix(.26458 0 0 .26458 -123.825 79.11)" fill="#452981" filter="url(#a)"><path style="marker:none" overflow="visible" d="M611.594-291.288l-1.406 1.031a12.251 12.251 0 0 1 2.406 7.282c0 2.712-.89 5.214-2.375 7.25l1.406 1.03a14.025 14.025 0 0 0 2.688-8.28c0-3.11-1.012-5.981-2.72-8.313zM602-289.5l-4 3.5h-2v6h2l4 3.5zm6.469.493l-1.375 1a8.422 8.422 0 0 1 0 10.032l1.406 1c1.227-1.69 1.969-3.753 1.969-6 0-2.263-.757-4.336-2-6.032zm-3 2.188l-1.344.969a4.82 4.82 0 0 1 .969 2.875 4.834 4.834 0 0 1-.938 2.843l1.344 1a6.527 6.527 0 0 0 1.25-3.843c0-1.438-.49-2.764-1.281-3.844z" color="#bebebe"/></g><g transform="matrix(.26458 0 0 .26458 -85.725 68.527)" fill="#452981" filter="url(#b)"><path style="isolation:auto;mix-blend-mode:normal;marker:none" overflow="visible" d="M598-248c-.554 0-1 2.23-1 5s.446 5 1 5h14c.411 0 .76-1.235.914-3h1.584c.278 0 .502-.892.502-2s-.224-2-.502-2h-1.584c-.154-1.765-.503-3-.914-3zm.512 1h12.977c.283 0 .511 1.784.511 4s-.228 4-.511 4h-12.977c-.283 0-.512-1.784-.512-4s.229-4 .512-4zm.742 1c-.14 0-.254 1.338-.254 3s.114 3 .254 3h11.492c.14 0 .254-1.338.254-3s-.114-3-.254-3zm13.705 2h.932c.06 0 .11.446.11 1s-.05 1-.11 1h-.932c.014-.334.041-.645.041-1s-.027-.666-.04-1z" color="#bebebe"/></g><g transform="matrix(.26458 0 0 .26458 -98.176 47.36)" fill="#452981" filter="url(#c)"><path style="marker:none" overflow="visible" d="M604.5-170c-.277 0-.5.223-.5.5v4.875l-1.719-1.5c-.313-.273-.758-.22-1.03.094a.753.753 0 0 0 .062 1.062l2.25 1.969-2.25 1.969a.753.753 0 0 0-.063 1.062c.273.313.718.367 1.031.094l1.72-1.5v4.875c0 .277.222.5.5.5.282 0 .437-.02.655-.188l3.532-3.156a.78.78 0 0 0 .218-.375.745.745 0 0 0 .032-.281.723.723 0 0 0-.032-.156.78.78 0 0 0-.218-.375l-2.813-2.47 2.813-2.468a.78.78 0 0 0 .218-.375.71.71 0 0 0 0-.437.78.78 0 0 0-.218-.375l-3.532-3.157c-.199-.16-.427-.187-.656-.187zm.5 2.063l2.094 1.875L605-164.25zm0 6.187l2.094 1.813-2.094 1.875z" color="#bebebe"/></g><g transform="matrix(.26458 0 0 .26458 -110.57 4.986)" fill="#452981" filter="url(#d)"><path style="marker:none" overflow="visible" d="M605-8c-2.853 0-5.468 1.111-7.5 2.938l1.281 1.437C600.593-5.213 602.514-6 605.001-6c2.486 0 4.32.74 6.218 2.406l1.281-1.469C610.47-6.889 607.854-8 605-8zm0 4c-1.848 0-3.514.75-4.875 1.875l1.344 1.406c.906-.649 2.299-1.281 3.469-1.281 1.198 0 2.674.634 3.593 1.313l1.375-1.47C608.546-3.28 606.848-4 605-4zm0 4c-.884 0-1.765.477-2.125.875L605 3.156l2.125-2.281C606.765.457 605.884 0 605 0z" color="#000"/></g><path d="M23.879 1.852a.066.066 0 0 0-.066.066v.397c0 .037.03.066.066.066h.132a.066.066 0 0 0 .066-.066v-.397a.066.066 0 0 0-.066-.066zm-1.619.67a.066.066 0 0 0-.007 0 .066.066 0 0 0-.039.02l-.093.093a.066.066 0 0 0 0 .093l.28.281a.066.066 0 0 0 .094 0l.093-.093a.066.066 0 0 0 0-.094l-.28-.28a.066.066 0 0 0-.048-.02zm3.368 0a.066.066 0 0 0-.007 0 .066.066 0 0 0-.04.02l-.28.28a.066.066 0 0 0 0 .094l.094.093a.066.066 0 0 0 .093 0l.281-.28a.066.066 0 0 0 0-.094l-.094-.094a.066.066 0 0 0-.047-.02zm-1.683.388a1.456 1.456 0 0 0 0 2.91 1.456 1.456 0 0 0 0-2.91zm-.027.282a1.178 1.178 0 0 1 .001 0 1.178 1.178 0 0 1 .022 0h.002a.982.982 0 0 0-.395.784.982.982 0 0 0 .982.983.982.982 0 0 0 .5-.138 1.178 1.178 0 1 1-1.112-1.63zm-2.42 1.041a.066.066 0 0 0-.067.066v.133c0 .037.03.066.066.066h.397a.066.066 0 0 0 .066-.066v-.133a.066.066 0 0 0-.066-.066zm4.497 0a.066.066 0 0 0-.066.066v.133c0 .037.03.066.066.066h.397a.066.066 0 0 0 .066-.066v-.133a.066.066 0 0 0-.066-.066zm-3.548 1.47a.066.066 0 0 0-.046.02l-.28.28a.066.066 0 0 0 0 .093l.093.094a.066.066 0 0 0 .094 0l.28-.28a.066.066 0 0 0 0-.094l-.093-.094a.066.066 0 0 0-.048-.02zm2.993 0a.066.066 0 0 0-.045.02l-.094.093a.066.066 0 0 0 0 .093l.28.28a.066.066 0 0 0 .094 0l.094-.093a.066.066 0 0 0 0-.093l-.28-.28a.066.066 0 0 0-.049-.02zm-1.561.647a.066.066 0 0 0-.067.066v.397c0 .037.03.066.067.066h.132a.066.066 0 0 0 .066-.066v-.397a.066.066 0 0 0-.066-.066z" style="marker:none" color="#000" overflow="visible" fill="#452981" stroke-width=".265" enable-background="accumulate" filter="url(#e)"/><g transform="matrix(.26458 0 0 .26458 -73.29 -5.556)" fill="#452981" filter="url(#f)"><path style="isolation:auto;mix-blend-mode:normal;marker:none" overflow="visible" d="M605 30a1 1 0 0 0-1 1v.01c-1.764.456-2.998 2.168-3 3.99 0 0 0 5-1.66 5.621-.016.011-.023.031-.04.043a.726.726 0 0 0-.161.176c-.018.027-.039.048-.053.076a.738.738 0 0 0-.086.334c0 .416.335.75.75.75h10.5c.416 0 .75-.334.75-.75a.738.738 0 0 0-.086-.334c-.014-.028-.035-.05-.052-.076a.725.725 0 0 0-.162-.176c-.016-.012-.023-.032-.04-.043C609 40.001 609 35 609 35c-.002-1.823-1.235-3.535-3-3.99V31a1 1 0 0 0-1-1zm-1.933 13A2 2 0 0 0 605 44.5a2 2 0 0 0 1.936-1.5z" color="#bebebe"/></g><g transform="matrix(.26458 0 0 .26458 -7.938 47.36)" fill="#452981" filter="url(#g)"><path style="marker:none" overflow="visible" d="M405-170c-.554 0-1 .446-1 1v4c0 .554.446 1 1 1s1-.446 1-1v-4c0-.554-.446-1-1-1zm-3 2a1.01 1.01 0 0 0-.625.219 4.934 4.934 0 0 0-.281.25A5.946 5.946 0 0 0 399-163a6 6 0 1 0 12 0c0-1.82-.815-3.435-2.094-4.531a4.938 4.938 0 0 0-.28-.25A1 1 0 0 0 407-167c0 .311.147.57.374.75.04.038.054.06.125.125A3.95 3.95 0 0 1 409-163a4 4 0 1 1-8 0 3.95 3.95 0 0 1 1.5-3.125c.072-.066.085-.087.125-.125A.944.944 0 0 0 403-167a1 1 0 0 0-1-1z" color="#000"/></g><path style="marker:none" overflow="visible" d="M37.993 1.776l-.372.273a3.241 3.241 0 0 1 .636 1.926c0 .718-.235 1.38-.628 1.919l.372.272a3.71 3.71 0 0 0 .711-2.19c0-.823-.268-1.583-.72-2.2zm-2.539.473l-1.058.926h-.53v1.587h.53l1.058.927zm1.712.13l-.364.265a2.228 2.228 0 0 1 0 2.654l.372.265c.325-.447.52-.993.52-1.588 0-.598-.2-1.147-.528-1.596zm-.794.58l-.356.256c.159.214.257.475.257.76a1.279 1.279 0 0 1-.248.753l.355.264a1.727 1.727 0 0 0 .33-1.017c0-.38-.129-.73-.338-1.017z" color="#bebebe" fill="#fafafa"/><path style="isolation:auto;mix-blend-mode:normal;marker:none" overflow="visible" d="M72.496 2.646c-.147 0-.265.59-.265 1.323s.118 1.323.265 1.323H76.2c.109 0 .201-.327.242-.794h.419c.073 0 .133-.236.133-.53 0-.292-.06-.528-.133-.528h-.42c-.04-.467-.132-.794-.241-.794zm.135.264h3.434c.075 0 .135.472.135 1.059 0 .586-.06 1.058-.135 1.058H72.63c-.075 0-.135-.472-.135-1.058 0-.587.06-1.059.135-1.059zm.197.265c-.037 0-.068.354-.068.794 0 .44.03.793.068.793h3.04c.037 0 .067-.354.067-.793 0-.44-.03-.794-.067-.794zm3.626.53h.246c.016 0 .03.117.03.264 0 .146-.014.264-.03.264h-.246c.003-.088.01-.17.01-.264s-.007-.176-.01-.265z" color="#bebebe" fill="#fafafa"/><path style="marker:none" overflow="visible" d="M61.764 2.117a.132.132 0 0 0-.132.132v1.29l-.455-.397c-.083-.072-.2-.058-.272.025a.2.2 0 0 0 .016.28l.595.522-.595.52a.2.2 0 0 0-.017.282c.073.083.19.097.273.025l.455-.397v1.29c0 .073.059.132.132.132.075 0 .116-.005.174-.05l.934-.835a.206.206 0 0 0 .058-.1.197.197 0 0 0 .008-.073.191.191 0 0 0-.008-.042.206.206 0 0 0-.058-.099l-.744-.654.744-.653a.206.206 0 0 0 .058-.099.188.188 0 0 0 0-.115.206.206 0 0 0-.058-.1l-.934-.835a.261.261 0 0 0-.174-.05zm.132.546l.555.496-.555.479zm0 1.636l.555.48-.555.496z" color="#bebebe" fill="#fafafa"/><path style="marker:none" overflow="visible" d="M49.504 2.605a2.96 2.96 0 0 0-1.985.777l.34.38c.479-.42.987-.628 1.645-.628s1.143.196 1.645.636l.34-.388a2.959 2.959 0 0 0-1.985-.777zm0 1.058c-.49 0-.93.198-1.29.496l.355.372c.24-.172.609-.339.918-.339.317 0 .708.168.951.347l.364-.388a2.041 2.041 0 0 0-1.298-.488zm0 1.058a.84.84 0 0 0-.563.232l.563.603.562-.603c-.095-.11-.328-.232-.562-.232z" color="#000" fill="#fafafa"/><path d="M23.879 1.587a.066.066 0 0 0-.066.067v.397c0 .036.03.066.066.066h.132a.066.066 0 0 0 .066-.066v-.397a.066.066 0 0 0-.066-.067zm-1.619.67a.066.066 0 0 0-.007 0 .066.066 0 0 0-.039.02l-.093.093a.066.066 0 0 0 0 .094l.28.28a.066.066 0 0 0 .094 0l.093-.093a.066.066 0 0 0 0-.094l-.28-.28a.066.066 0 0 0-.048-.02zm3.368 0a.066.066 0 0 0-.007 0 .066.066 0 0 0-.04.02l-.28.28a.066.066 0 0 0 0 .094l.094.094a.066.066 0 0 0 .093 0l.281-.281a.066.066 0 0 0 0-.094l-.094-.093a.066.066 0 0 0-.047-.02zm-1.683.389a1.456 1.456 0 0 0 0 2.91 1.456 1.456 0 0 0 0-2.91zm-.027.28a1.178 1.178 0 0 1 .001 0 1.178 1.178 0 0 1 .022 0h.002a.982.982 0 0 0-.395.786.982.982 0 0 0 .982.983.982.982 0 0 0 .5-.138 1.178 1.178 0 1 1-1.112-1.63zm-2.42 1.043a.066.066 0 0 0-.067.066v.132c0 .037.03.066.066.066h.397a.066.066 0 0 0 .066-.066v-.132a.066.066 0 0 0-.066-.066zm4.497 0a.066.066 0 0 0-.066.066v.132c0 .037.03.066.066.066h.397a.066.066 0 0 0 .066-.066v-.132a.066.066 0 0 0-.066-.066zm-3.548 1.469a.066.066 0 0 0-.046.02l-.28.28a.066.066 0 0 0 0 .094l.093.093a.066.066 0 0 0 .094 0l.28-.28a.066.066 0 0 0 0-.094l-.093-.093a.066.066 0 0 0-.048-.02zm2.993 0a.066.066 0 0 0-.045.02l-.094.093a.066.066 0 0 0 0 .094l.28.28a.066.066 0 0 0 .094 0l.094-.093a.066.066 0 0 0 0-.094l-.28-.28a.066.066 0 0 0-.049-.02zm-1.561.647a.066.066 0 0 0-.067.067v.396c0 .037.03.067.067.067h.132a.066.066 0 0 0 .066-.067v-.396a.066.066 0 0 0-.066-.067z" style="marker:none" color="#000" overflow="visible" fill="#fafafa" stroke-width=".265" enable-background="accumulate"/><path style="isolation:auto;mix-blend-mode:normal;marker:none" overflow="visible" d="M86.783 2.117a.265.265 0 0 0-.264.264v.003c-.467.12-.793.574-.794 1.056 0 0 0 1.322-.44 1.487-.003.003-.005.008-.01.011a.192.192 0 0 0-.042.047c-.005.007-.01.012-.014.02a.195.195 0 0 0-.023.088c0 .11.088.199.198.199h2.778c.11 0 .199-.089.199-.199a.195.195 0 0 0-.023-.088c-.004-.008-.01-.013-.014-.02a.192.192 0 0 0-.043-.047l-.01-.011c-.44-.164-.44-1.487-.44-1.487 0-.483-.326-.936-.793-1.056V2.38a.265.265 0 0 0-.265-.264zm-.511 3.44a.53.53 0 0 0 .511.396.53.53 0 0 0 .513-.397z" color="#bebebe" fill="#fafafa"/><path style="marker:none" overflow="visible" d="M99.219 2.117a.264.264 0 0 0-.265.264V3.44a.264.264 0 1 0 .53 0V2.38a.264.264 0 0 0-.265-.264zm-.794.529a.267.267 0 0 0-.165.058 1.305 1.305 0 0 0-.075.066 1.573 1.573 0 0 0-.554 1.199 1.587 1.587 0 1 0 3.175 0c0-.482-.215-.91-.554-1.2a1.307 1.307 0 0 0-.074-.065.265.265 0 0 0-.43.206c0 .083.039.151.099.199.01.01.014.016.033.033a1.045 1.045 0 0 1 .397.827 1.058 1.058 0 1 1-2.117 0 1.045 1.045 0 0 1 .397-.827c.02-.018.023-.023.033-.033a.25.25 0 0 0 .1-.199.265.265 0 0 0-.265-.264z" color="#000" fill="#fafafa"/></svg>